M48
; DRILL file KiCad 10.0.4 date 2026-08-08T18:31:14
; FORMAT={-:-/ absolute / inch / decimal}
; #@! TF.CreationDate,2026-08-08T18:31:14-07:00
; #@! TF.GenerationSoftware,Kicad,Pcbnew,10.0.4
; #@! TF.FileFunction,Plated,1,2,PTH
FMAT,2
INCH
; #@! TA.AperFunction,Plated,PTH,ViaDrill
T1C0.0118
; #@! TA.AperFunction,Plated,PTH,ComponentDrill
T2C0.0315
%
G90
G05
T1
X2.2957Y-1.8315
X2.2957Y-2.0839
X2.2957Y-2.139
X2.2958Y-2.2545
X2.2965Y-1.7799
X2.3193Y-1.9181
X2.3197Y-2.0209
X2.4039Y-2.1957
X2.4256Y-2.0083
X2.4268Y-1.9516
X2.4445Y-2.0783
X2.4717Y-1.8512
X2.5312Y-1.9535
X2.5437Y-2.0866
X2.5472Y-1.8488
X2.5579Y-2.2567
X2.5701Y-1.95
X2.5764Y-1.8492
X2.5768Y-2.0854
X2.6909Y-1.8189
T2
X2.3474Y-1.8656
X2.3474Y-1.9656
X2.3474Y-2.0656
X2.3474Y-2.1656
X2.6474Y-1.8656
X2.6474Y-1.9656
X2.6474Y-2.0656
X2.6474Y-2.1656
M30
