M48
; DRILL file {KiCad 9.0.4} date 2025-12-31T01:27:23-0800
; FORMAT={-:-/ absolute / inch / decimal}
; #@! TF.CreationDate,2025-12-31T01:27:23-08:00
; #@! TF.GenerationSoftware,Kicad,Pcbnew,9.0.4
; #@! TF.FileFunction,Plated,1,2,PTH
FMAT,2
INCH
; #@! TA.AperFunction,Plated,PTH,ViaDrill
T1C0.0118
; #@! TA.AperFunction,Plated,PTH,ComponentDrill
T2C0.0315
; #@! TA.AperFunction,Plated,PTH,ComponentDrill
T3C0.0354
; #@! TA.AperFunction,Plated,PTH,ComponentDrill
T4C0.0394
; #@! TA.AperFunction,Plated,PTH,ComponentDrill
T5C0.0433
; #@! TA.AperFunction,Plated,PTH,ComponentDrill
T6C0.0512
%
G90
G05
T1
X4.1339Y-5.0295
X4.1339Y-5.1772
X4.2323Y-5.0295
X4.2323Y-5.1772
X4.3307Y-5.0295
X4.3307Y-5.1772
X4.439Y-5.0295
X4.439Y-5.1772
X4.5276Y-5.0295
X4.5276Y-5.1772
X4.9016Y-5.4921
X5.2205Y-5.4016
X5.2756Y-5.3465
X5.3346Y-5.3465
T3
X5.128Y-5.4148
X5.128Y-5.5148
T4
X3.9803Y-5.2657
X4.0803Y-5.2657
X4.1803Y-5.2657
X4.2803Y-5.2657
X4.3803Y-5.2657
X4.4803Y-5.2657
X4.5803Y-5.2657
X4.6803Y-5.2657
T5
X3.3335Y-3.0906
X3.3335Y-4.0838
X3.7335Y-3.0906
X3.7335Y-4.0838
X4.1307Y-3.0897
X4.1307Y-4.0838
X4.5307Y-3.0897
X4.5307Y-4.0838
X4.928Y-3.0897
X4.928Y-4.0838
X5.328Y-3.0897
X5.328Y-4.0838
T6
X3.5335Y-3.0906
X3.5335Y-4.0838
X4.3307Y-3.0897
X4.3307Y-4.0838
X5.128Y-3.0897
X5.128Y-4.0838
T2
G00X3.4154Y-1.9154
M15
G01X3.4154Y-1.8839
M16
G05
G00X3.4154Y-2.1654
M15
G01X3.4154Y-2.1339
M16
G05
G00X3.4154Y-2.4154
M15
G01X3.4154Y-2.3839
M16
G05
G00X4.0543Y-1.9154
M15
G01X4.0543Y-1.8839
M16
G05
G00X4.0543Y-2.1654
M15
G01X4.0543Y-2.1339
M16
G05
G00X4.0543Y-2.4154
M15
G01X4.0543Y-2.3839
M16
G05
G00X4.1496Y-1.9311
M15
G01X4.1496Y-2.0177
M16
G05
G00X4.3819Y-1.8642
M15
G01X4.2953Y-1.8642
M16
G05
G00X4.3898Y-2.0925
M15
G01X4.2874Y-2.0925
M16
G05
G00X4.6063Y-1.8957
M15
G01X4.6063Y-1.8642
M16
G05
G00X4.6063Y-2.1457
M15
G01X4.6063Y-2.1142
M16
G05
G00X4.6063Y-2.3957
M15
G01X4.6063Y-2.3642
M16
G05
G00X5.2453Y-1.8957
M15
G01X5.2453Y-1.8642
M16
G05
G00X5.2453Y-2.1457
M15
G01X5.2453Y-2.1142
M16
G05
G00X5.2453Y-2.3957
M15
G01X5.2453Y-2.3642
M16
G05
M30
